<svg width="37" height="42" viewBox="0 0 37 42" fill="none" xmlns="http://www.w3.org/2000/svg">
<path d="M34.9648 14.0698C34.7679 14.1847 30.0792 16.6095 30.0792 21.9859C30.3002 28.1173 35.9961 30.2675 36.0938 30.2675C35.9961 30.3824 35.2338 33.1967 32.976 36.1467C31.1841 38.6879 29.1952 41.25 26.1751 41.25C23.3024 41.25 22.2711 39.5564 18.9564 39.5564C15.3966 39.5564 14.3894 41.25 11.664 41.25C8.64385 41.25 6.50769 38.5506 4.61813 36.0333C2.1633 32.7386 0.076771 27.5681 0.0031101 22.6036C-0.0465309 19.9729 0.494716 17.387 1.86865 15.1905C3.80786 12.124 7.26992 10.0424 11.0506 9.97377C13.9474 9.88275 16.5256 11.8271 18.2934 11.8271C19.9876 11.8271 23.1551 9.97377 26.7388 9.97377C28.2857 9.97527 32.4107 10.4095 34.9648 14.0698ZM18.0484 9.44852C17.5328 7.0461 18.9564 4.64368 20.2823 3.11121C21.9765 1.25791 24.6523 0 26.9598 0C27.1071 2.40242 26.1735 4.75858 24.505 6.4746C23.0077 8.32789 20.4296 9.72309 18.0484 9.44852Z" fill="#2C0D18"/>
</svg>
