<svg width="54" height="37" viewBox="0 0 54 37" fill="none" xmlns="http://www.w3.org/2000/svg">
<path d="M12 0.813965C8.532 0.813965 5.445 1.94197 3.288 4.09897C1.128 6.25897 0 9.33997 0 12.808C0 16.057 0.57 18.688 2.13 20.761C3.366 22.399 5.37 23.377 7.44 24.4C7.446 27.691 7.38 28.924 4.8 33.436C3.642 35.467 5.964 37.696 7.944 36.457C14.016 32.665 18.021 29.737 20.589 26.098C23.16 22.459 24 18.268 24 12.808C24 9.33997 22.878 6.25897 20.718 4.09897C18.558 1.93897 15.468 0.813965 12 0.813965ZM42 0.813965C38.532 0.813965 35.445 1.94197 33.288 4.09897C31.128 6.25897 30 9.33997 30 12.808C30 16.057 30.57 18.688 32.13 20.761C33.366 22.399 35.37 23.377 37.44 24.4C37.446 27.691 37.38 28.924 34.8 33.436C33.642 35.467 35.964 37.696 37.944 36.457C44.016 32.665 48.021 29.737 50.589 26.098C53.16 22.459 54 18.268 54 12.808C54 9.33997 52.878 6.25897 50.718 4.09897C48.558 1.93897 45.468 0.813965 42 0.813965Z" fill="#2C0D18"/>
</svg>
