<svg width="53" height="53" viewBox="0 0 53 53" fill="none" xmlns="http://www.w3.org/2000/svg">
<rect width="53" height="53" rx="26.5" fill="#FFF4F8"/>
<mask id="mask0_950_7680" style="mask-type:luminance" maskUnits="userSpaceOnUse" x="9" y="9" width="36" height="36">
<path d="M9 9H44.0879V44.0879H9V9Z" fill="white"/>
<path d="M22.727 32.2697C22.6016 32.3951 22.4527 32.4946 22.2889 32.5624C22.1251 32.6303 21.9495 32.6652 21.7722 32.6652C21.5948 32.6652 21.4193 32.6303 21.2554 32.5624C21.0916 32.4946 20.9428 32.3951 20.8174 32.2697C20.692 32.1443 20.5925 31.9955 20.5247 31.8316C20.4568 31.6678 20.4219 31.4922 20.4219 31.3149C20.4219 31.1376 20.4568 30.962 20.5247 30.7982C20.5925 30.6344 20.692 30.4855 20.8174 30.3601L30.3599 20.8189C30.4852 20.6935 30.634 20.594 30.7977 20.5261C30.9615 20.4583 31.137 20.4233 31.3142 20.4232C31.4915 20.4232 31.667 20.458 31.8308 20.5258C31.9946 20.5936 32.1435 20.6929 32.2688 20.8182C32.3942 20.9435 32.4937 21.0923 32.5616 21.256C32.6295 21.4198 32.6645 21.5953 32.6645 21.7725C32.6646 21.9498 32.6297 22.1253 32.562 22.2891C32.4942 22.4529 32.3948 22.6018 32.2695 22.7271L22.727 32.2697Z" fill="black"/>
<path d="M20.8174 22.7274C20.5641 22.4742 20.4219 22.1308 20.4219 21.7726C20.4219 21.4145 20.5641 21.0711 20.8174 20.8179C21.0706 20.5646 21.414 20.4224 21.7722 20.4224C22.1303 20.4224 22.4737 20.5646 22.727 20.8179L32.2682 30.3604C32.3935 30.4857 32.493 30.6345 32.5609 30.7982C32.6288 30.962 32.6638 31.1375 32.6638 31.3147C32.6639 31.492 32.6291 31.6675 32.5613 31.8313C32.4935 31.9951 32.3941 32.1439 32.2688 32.2693C32.1435 32.3947 31.9948 32.4942 31.831 32.5621C31.6673 32.63 31.4918 32.6649 31.3145 32.665C31.1373 32.6651 30.9617 32.6302 30.7979 32.5624C30.6341 32.4947 30.4853 32.3953 30.3599 32.27L20.8174 22.7274Z" fill="black"/>
</mask>
<g mask="url(#mask0_950_7680)">
<path d="M26.5439 44.0879C36.2332 44.0879 44.0879 36.2332 44.0879 26.5439C44.0879 16.8547 36.2332 9 26.5439 9C16.8547 9 9 16.8547 9 26.5439C9 36.2332 16.8547 44.0879 26.5439 44.0879Z" fill="#EA1216"/>
</g>
</svg>
