<svg width="17" height="17" viewBox="0 0 17 17" fill="none" xmlns="http://www.w3.org/2000/svg">
<path fill-rule="evenodd" clip-rule="evenodd" d="M8.02855 11.2853C8.2889 11.5456 8.71101 11.5456 8.97136 11.2853L11.638 8.6186C11.8984 8.35825 11.8984 7.93614 11.638 7.67579C11.3777 7.41544 10.9556 7.41544 10.6952 7.67579L8.49996 9.87105L6.3047 7.67579C6.04435 7.41544 5.62224 7.41544 5.36189 7.67579C5.10154 7.93614 5.10154 8.35825 5.36189 8.6186L8.02855 11.2853Z" fill="#FFF4F8"/>
<path fill-rule="evenodd" clip-rule="evenodd" d="M8.49998 2.14716C8.86817 2.14716 9.16665 2.44563 9.16665 2.81382V10.8138C9.16665 11.182 8.86817 11.4805 8.49998 11.4805C8.13179 11.4805 7.83331 11.182 7.83331 10.8138V2.81382C7.83331 2.44563 8.13179 2.14716 8.49998 2.14716Z" fill="#FFF4F8"/>
<path fill-rule="evenodd" clip-rule="evenodd" d="M3.83335 8.81384C4.20154 8.81384 4.50002 9.11232 4.50002 9.48051V12.8138C4.50002 13.5502 5.09697 14.1472 5.83335 14.1472H11.1667C11.9031 14.1472 12.5 13.5502 12.5 12.8138V9.48051C12.5 9.11232 12.7985 8.81384 13.1667 8.81384C13.5349 8.81384 13.8334 9.11232 13.8334 9.48051V12.8138C13.8334 14.2866 12.6394 15.4805 11.1667 15.4805H5.83335C4.36059 15.4805 3.16669 14.2866 3.16669 12.8138V9.48051C3.16669 9.11232 3.46516 8.81384 3.83335 8.81384Z" fill="#FFF4F8"/>
</svg>
