<svg width="33" height="33" viewBox="0 0 33 33" fill="none" xmlns="http://www.w3.org/2000/svg">
<path d="M7.21875 6.1875C5.85123 6.1875 4.53972 6.73075 3.57273 7.69773C2.60575 8.66472 2.0625 9.97623 2.0625 11.3438V12.375H30.9375V11.3438C30.9375 9.97623 30.3943 8.66472 29.4273 7.69773C28.4603 6.73075 27.1488 6.1875 25.7812 6.1875H7.21875ZM30.9375 14.4375H2.0625V21.6562C2.0625 23.0238 2.60575 24.3353 3.57273 25.3023C4.53972 26.2693 5.85123 26.8125 7.21875 26.8125H25.7812C27.1488 26.8125 28.4603 26.2693 29.4273 25.3023C30.3943 24.3353 30.9375 23.0238 30.9375 21.6562V14.4375ZM21.6562 20.625H25.7812C26.0548 20.625 26.3171 20.7336 26.5105 20.927C26.7039 21.1204 26.8125 21.3827 26.8125 21.6562C26.8125 21.9298 26.7039 22.1921 26.5105 22.3855C26.3171 22.5789 26.0548 22.6875 25.7812 22.6875H21.6562C21.3827 22.6875 21.1204 22.5789 20.927 22.3855C20.7336 22.1921 20.625 21.9298 20.625 21.6562C20.625 21.3827 20.7336 21.1204 20.927 20.927C21.1204 20.7336 21.3827 20.625 21.6562 20.625Z" fill="#E50050"/>
</svg>
