<svg width="16" height="16" viewBox="0 0 16 16" fill="none" xmlns="http://www.w3.org/2000/svg">
<path d="M8 1C7.71888 1 7.44051 1.05601 7.18078 1.16483C6.92106 1.27365 6.68507 1.43315 6.48629 1.63422C6.2875 1.83529 6.12982 2.074 6.02224 2.33671C5.91466 2.59943 5.85929 2.881 5.85929 3.16536C5.85929 3.44972 5.91466 3.7313 6.02224 3.99401C6.12982 4.25673 6.2875 4.49543 6.48629 4.69651C6.68507 4.89758 6.92106 5.05708 7.18078 5.1659C7.44051 5.27472 7.71888 5.33073 8 5.33073C8.56775 5.33073 9.11225 5.10259 9.51371 4.69651C9.91517 4.29042 10.1407 3.73965 10.1407 3.16536C10.1407 2.59107 9.91517 2.0403 9.51371 1.63422C9.11225 1.22814 8.56775 1 8 1ZM12.8214 2.0816C12.3952 2.0816 11.9864 2.25287 11.685 2.55774C11.3836 2.86261 11.2143 3.2761 11.2143 3.70725C11.2143 4.1384 11.3836 4.55189 11.685 4.85675C11.9864 5.16162 12.3952 5.3329 12.8214 5.3329C13.2477 5.3329 13.6565 5.16162 13.9578 4.85675C14.2592 4.55189 14.4286 4.1384 14.4286 3.70725C14.4286 3.2761 14.2592 2.86261 13.9578 2.55774C13.6565 2.25287 13.2477 2.0816 12.8214 2.0816ZM3.17857 2.0816C2.75233 2.0816 2.34355 2.25287 2.04215 2.55774C1.74075 2.86261 1.57143 3.2761 1.57143 3.70725C1.57143 4.1384 1.74075 4.55189 2.04215 4.85675C2.34355 5.16162 2.75233 5.3329 3.17857 5.3329C3.60481 5.3329 4.0136 5.16162 4.31499 4.85675C4.61639 4.55189 4.78571 4.1384 4.78571 3.70725C4.78571 3.2761 4.61639 2.86261 4.31499 2.55774C4.0136 2.25287 3.60481 2.0816 3.17857 2.0816ZM4.78571 7.49284C4.78769 7.20672 4.90145 6.93301 5.10217 6.7314C5.30289 6.52979 5.57428 6.41665 5.85714 6.41666H10.1429C10.427 6.41666 10.6995 6.53084 10.9005 6.73409C11.1014 6.93733 11.2143 7.21299 11.2143 7.50043V10.7517C11.2146 11.0928 11.1618 11.4319 11.0579 11.7564C10.8206 12.4919 10.3319 13.1178 9.67948 13.5217C9.02706 13.9256 8.25366 14.081 7.49817 13.96C6.74268 13.839 6.05459 13.4495 5.55744 12.8615C5.0603 12.2735 4.78668 11.5254 4.78571 10.7517V7.49284ZM3.71429 7.50043C3.71429 7.10485 3.81821 6.73529 4.00143 6.41666H1.57143C1.28727 6.41666 1.01475 6.53084 0.813814 6.73409C0.612882 6.93733 0.5 7.21299 0.5 7.50043V10.2098C0.499854 10.6534 0.607385 11.0903 0.813149 11.482C1.01891 11.8737 1.31662 12.2084 1.68012 12.4565C2.04362 12.7047 2.46179 12.8588 2.89792 12.9052C3.33405 12.9517 3.77478 12.8892 4.18143 12.7231C3.87371 12.1122 3.71361 11.4362 3.71429 10.7506V7.50043ZM12.2857 7.50043V10.7517C12.2857 11.4616 12.1175 12.1314 11.8186 12.7231C12.2252 12.8892 12.666 12.9517 13.1021 12.9052C13.5382 12.8588 13.9564 12.7047 14.3199 12.4565C14.6834 12.2084 14.9811 11.8737 15.1869 11.482C15.3926 11.0903 15.5001 10.6534 15.5 10.2098V7.50043C15.5 7.21299 15.3871 6.93733 15.1862 6.73409C14.9853 6.53084 14.7127 6.41666 14.4286 6.41666H11.9986C12.1807 6.73529 12.2857 7.10485 12.2857 7.50043Z" fill="#E50050"/>
</svg>
