<svg width="44" height="44" viewBox="0 0 44 44" fill="none" xmlns="http://www.w3.org/2000/svg">
<rect width="44" height="44" rx="22" fill="#E50050"/>
<path fill-rule="evenodd" clip-rule="evenodd" d="M12 16C12 13.7909 13.7909 12 16 12H17C19.2091 12 21 13.7909 21 16V17C21 19.2091 19.2091 21 17 21H16C13.7909 21 12 19.2091 12 17V16ZM16 14C14.8954 14 14 14.8954 14 16V17C14 18.1046 14.8954 19 16 19H17C18.1046 19 19 18.1046 19 17V16C19 14.8954 18.1046 14 17 14H16ZM23 16C23 13.7909 24.7909 12 27 12H28C30.2091 12 32 13.7909 32 16V17C32 19.2091 30.2091 21 28 21H27C24.7909 21 23 19.2091 23 17V16ZM27 14C25.8954 14 25 14.8954 25 16V17C25 18.1046 25.8954 19 27 19H28C29.1046 19 30 18.1046 30 17V16C30 14.8954 29.1046 14 28 14H27ZM12 27C12 24.7909 13.7909 23 16 23H17C19.2091 23 21 24.7909 21 27V28C21 30.2091 19.2091 32 17 32H16C13.7909 32 12 30.2091 12 28V27ZM16 25C14.8954 25 14 25.8954 14 27V28C14 29.1046 14.8954 30 16 30H17C18.1046 30 19 29.1046 19 28V27C19 25.8954 18.1046 25 17 25H16ZM23 27C23 24.7909 24.7909 23 27 23H28C30.2091 23 32 24.7909 32 27V28C32 30.2091 30.2091 32 28 32H27C24.7909 32 23 30.2091 23 28V27ZM27 25C25.8954 25 25 25.8954 25 27V28C25 29.1046 25.8954 30 27 30H28C29.1046 30 30 29.1046 30 28V27C30 25.8954 29.1046 25 28 25H27Z" fill="#FFF4F8"/>
</svg>
