<svg width="53" height="53" viewBox="0 0 53 53" fill="none" xmlns="http://www.w3.org/2000/svg">
<rect width="53" height="53" rx="26.5" fill="#FFF4F8"/>
<path fill-rule="evenodd" clip-rule="evenodd" d="M26.5 44.1891C28.8638 44.1891 31.2044 43.7235 33.3883 42.8189C35.5722 41.9143 37.5565 40.5885 39.2279 38.917C40.8994 37.2456 42.2253 35.2612 43.1298 33.0774C44.0344 30.8935 44.5 28.5529 44.5 26.1891C44.5 23.8253 44.0344 21.4846 43.1298 19.3008C42.2253 17.1169 40.8994 15.1326 39.2279 13.4612C37.5565 11.7897 35.5722 10.4638 33.3883 9.55926C31.2044 8.65467 28.8638 8.18909 26.5 8.18909C21.7261 8.18909 17.1477 10.0855 13.7721 13.4612C10.3964 16.8368 8.5 21.4152 8.5 26.1891C8.5 30.963 10.3964 35.5414 13.7721 38.917C17.1477 42.2927 21.7261 44.1891 26.5 44.1891ZM26.036 33.4691L36.036 21.4691L32.964 18.9091L24.364 29.2271L19.914 24.7751L17.086 27.6031L23.086 33.6031L24.634 35.1511L26.036 33.4691Z" fill="#34A853"/>
</svg>
