<svg width="29" height="31" viewBox="0 0 29 31" fill="none" xmlns="http://www.w3.org/2000/svg">
<path d="M28.25 10.375C27.1829 10.4031 26.128 10.1418 25.1975 9.61875C24.4538 9.19196 23.6071 8.9779 22.75 9V7.625C23.8171 7.5969 24.8719 7.85823 25.8025 8.38125C26.5461 8.80804 27.3928 9.0221 28.25 9M28.25 6.25C27.3928 6.2721 26.5461 6.05804 25.8025 5.63125C24.8719 5.10823 23.8171 4.8469 22.75 4.875V6.25C23.6071 6.2279 24.4538 6.44196 25.1975 6.86875C26.128 7.39177 27.1829 7.6531 28.25 7.625M28.25 11.75C27.3928 11.7721 26.5461 11.558 25.8025 11.1313C24.8719 10.6082 23.8171 10.3469 22.75 10.375V11.75C23.6071 11.7279 24.4538 11.942 25.1975 12.3687C26.128 12.8918 27.1829 13.1531 28.25 13.125M11.75 15.5037C14.997 14.8767 18.2096 14.0827 21.375 13.125V3.5C21.375 3.5 12.4375 0.75 8.31247 0.75C6.47615 0.755169 4.70445 1.42831 3.32799 2.64381C1.95153 3.85931 1.06435 5.53412 0.832027 7.35569C0.599701 9.17726 1.0381 11.0211 2.0654 12.5432C3.09271 14.0653 4.63874 15.1616 6.41497 15.6275L7.62497 24.125H8.99997C9.05496 24.7804 9.26585 25.4131 9.61507 25.9704C9.96428 26.5277 10.4417 26.9934 11.0075 27.3288C11.6454 27.708 12.1751 28.2448 12.5459 28.8877C12.9167 29.5306 13.1161 30.2579 13.125 31H14.5C14.4937 30.0528 14.2501 29.1222 13.7913 28.2935C13.3325 27.4648 12.6732 26.7643 11.8737 26.2562C10.9112 25.5 10.375 24.9912 10.375 24.125H11.75M8.31247 11.75C7.6326 11.75 6.96799 11.5484 6.4027 11.1707C5.8374 10.793 5.39681 10.2561 5.13664 9.62797C4.87646 8.99985 4.80839 8.30869 4.94102 7.64188C5.07366 6.97507 5.40105 6.36256 5.88179 5.88182C6.36253 5.40108 6.97504 5.07369 7.64185 4.94105C8.30866 4.80841 8.99983 4.87649 9.62795 5.13666C10.2561 5.39684 10.7929 5.83743 11.1706 6.40273C11.5484 6.96802 11.75 7.63263 11.75 8.3125C11.75 9.22418 11.3878 10.0985 10.7432 10.7432C10.0985 11.3878 9.22415 11.75 8.31247 11.75Z" fill="#E50050"/>
</svg>
