<svg width="33" height="34" viewBox="0 0 33 34" fill="none" xmlns="http://www.w3.org/2000/svg">
<path d="M25.157 6.87581C24.0393 5.71085 22.6975 4.7839 21.2124 4.15068C19.7273 3.51746 18.1296 3.19104 16.5151 3.19104C14.9007 3.19104 13.3029 3.51746 11.8178 4.15068C10.3327 4.7839 8.99096 5.71085 7.87323 6.87581C5.76948 9.62581 5.12323 13.7508 6.30573 17.9858C7.51573 22.5646 10.747 25.8783 13.3457 28.5321L14.6107 29.9071C14.8564 30.1678 15.1507 30.378 15.477 30.5258C15.8038 30.671 16.1575 30.746 16.5151 30.746C16.8727 30.746 17.2264 30.671 17.5532 30.5258C17.8735 30.3805 18.1629 30.1751 18.4057 29.9208L19.6845 28.5458C22.2832 25.8921 25.5145 22.5783 26.7245 17.9996C27.8382 13.7508 27.2607 9.62581 25.157 6.87581ZM16.5082 18.2196C15.4817 18.2198 14.4824 17.8899 13.6577 17.2787C12.8331 16.6674 12.2269 15.8072 11.9286 14.825C11.6303 13.8428 11.6558 12.7907 12.0013 11.8241C12.3467 10.8575 12.9939 10.0276 13.8472 9.45702C14.7004 8.8864 15.7146 8.6053 16.7399 8.65523C17.7651 8.70516 18.7472 9.08347 19.541 9.7343C20.3347 10.3851 20.8982 11.274 21.1481 12.2696C21.398 13.2652 21.3212 14.3148 20.9289 15.2633C20.5665 16.1366 19.9528 16.8825 19.1657 17.4064C18.3787 17.9303 17.4537 18.2085 16.5082 18.2058V18.2196Z" fill="#E50050"/>
</svg>
