<svg width="18" height="17" viewBox="0 0 18 17" fill="none" xmlns="http://www.w3.org/2000/svg">
<path d="M8.94784 14.3368L4.79784 16.8368C4.61451 16.9535 4.42284 17.0035 4.22284 16.9868C4.02284 16.9702 3.84784 16.9035 3.69784 16.7868C3.54784 16.6702 3.43117 16.5245 3.34784 16.3498C3.26451 16.1752 3.24784 15.9792 3.29784 15.7618L4.39784 11.0368L0.722839 7.86184C0.556172 7.71184 0.452172 7.54084 0.410839 7.34884C0.369505 7.15684 0.381839 6.96951 0.447839 6.78684C0.513839 6.60417 0.613839 6.45417 0.747839 6.33684C0.881839 6.21951 1.06517 6.14451 1.29784 6.11184L6.14784 5.68684L8.02284 1.23684C8.10617 1.03684 8.23551 0.886841 8.41084 0.786841C8.58617 0.686841 8.76517 0.636841 8.94784 0.636841C9.13051 0.636841 9.30951 0.686841 9.48484 0.786841C9.66017 0.886841 9.78951 1.03684 9.87284 1.23684L11.7478 5.68684L16.5978 6.11184C16.8312 6.14517 17.0145 6.22017 17.1478 6.33684C17.2812 6.45351 17.3812 6.60351 17.4478 6.78684C17.5145 6.97017 17.5272 7.15784 17.4858 7.34984C17.4445 7.54184 17.3402 7.71251 17.1728 7.86184L13.4978 11.0368L14.5978 15.7618C14.6478 15.9785 14.6312 16.1745 14.5478 16.3498C14.4645 16.5252 14.3478 16.6708 14.1978 16.7868C14.0478 16.9028 13.8728 16.9695 13.6728 16.9868C13.4728 17.0042 13.2812 16.9542 13.0978 16.8368L8.94784 14.3368Z" fill="#E50050"/>
</svg>
