<svg width="24" height="25" viewBox="0 0 24 25" fill="none" xmlns="http://www.w3.org/2000/svg">
<path fill-rule="evenodd" clip-rule="evenodd" d="M3 12.814C3 12.2617 3.44772 11.814 4 11.814H20C20.5523 11.814 21 12.2617 21 12.814C21 13.3662 20.5523 13.814 20 13.814H4C3.44772 13.814 3 13.3662 3 12.814Z" fill="#E50050"/>
<path fill-rule="evenodd" clip-rule="evenodd" d="M12 3.81396C12.5523 3.81396 13 4.26168 13 4.81396L13 20.814C13 21.3662 12.5523 21.814 12 21.814C11.4477 21.814 11 21.3662 11 20.814L11 4.81396C11 4.26168 11.4477 3.81396 12 3.81396Z" fill="#E50050"/>
</svg>
