<svg width="23" height="23" viewBox="0 0 23 23" fill="none" xmlns="http://www.w3.org/2000/svg">
<g clip-path="url(#clip0_950_7747)">
<path d="M2.03711 10.7443L20.93 2.15213L2.03711 10.7443ZM17.3978 0.821411L20.93 2.15213L19.6157 5.68427" fill="#E50050" fill-opacity="0.1"/>
<path d="M2.03711 10.7443L20.93 2.15213M20.93 2.15213L17.3978 0.821411M20.93 2.15213L19.6157 5.68427" stroke="#E50050" stroke-width="1.2" stroke-linecap="round" stroke-linejoin="round"/>
<path d="M21.7676 22.1786H17.6605V10.6786C17.6605 10.4607 17.747 10.2518 17.9011 10.0978C18.0551 9.94372 18.2641 9.85718 18.4819 9.85718H20.9462C21.1641 9.85718 21.373 9.94372 21.5271 10.0978C21.6811 10.2518 21.7676 10.4607 21.7676 10.6786V22.1786ZM13.5534 22.1786H9.44622V13.1429C9.44622 12.925 9.53276 12.7161 9.68681 12.5621C9.84086 12.408 10.0498 12.3215 10.2676 12.3215H12.7319C12.9498 12.3215 13.1587 12.408 13.3128 12.5621C13.4668 12.7161 13.5534 12.925 13.5534 13.1429V22.1786ZM5.33908 22.1786H1.23193V15.6072C1.23193 15.3893 1.31848 15.1804 1.47252 15.0263C1.62657 14.8723 1.83551 14.7857 2.05336 14.7857H4.51765C4.7355 14.7857 4.94444 14.8723 5.09849 15.0263C5.25253 15.1804 5.33908 15.3893 5.33908 15.6072V22.1786Z" fill="#E50050" fill-opacity="0.1"/>
<path d="M21.7676 22.1786H17.6605V10.6786C17.6605 10.4607 17.747 10.2518 17.9011 10.0978C18.0551 9.94372 18.2641 9.85718 18.4819 9.85718H20.9462C21.1641 9.85718 21.373 9.94372 21.5271 10.0978C21.6811 10.2518 21.7676 10.4607 21.7676 10.6786V22.1786ZM13.5534 22.1786H9.44622V13.1429C9.44622 12.925 9.53276 12.7161 9.68681 12.5621C9.84086 12.408 10.0498 12.3215 10.2676 12.3215H12.7319C12.9498 12.3215 13.1587 12.408 13.3128 12.5621C13.4668 12.7161 13.5534 12.925 13.5534 13.1429V22.1786ZM5.33908 22.1786H1.23193V15.6072C1.23193 15.3893 1.31848 15.1804 1.47252 15.0263C1.62657 14.8723 1.83551 14.7857 2.05336 14.7857H4.51765C4.7355 14.7857 4.94444 14.8723 5.09849 15.0263C5.25253 15.1804 5.33908 15.3893 5.33908 15.6072V22.1786Z" fill="#E50050" fill-opacity="0.1" stroke="#E50050" stroke-width="1.2" stroke-linecap="round" stroke-linejoin="round"/>
</g>
<defs>
<clipPath id="clip0_950_7747">
<rect width="23" height="23" fill="white"/>
</clipPath>
</defs>
</svg>
