<svg width="25" height="25" viewBox="0 0 25 25" fill="none" xmlns="http://www.w3.org/2000/svg">
<path d="M17.9688 15.6249C17.384 15.6279 16.8074 15.7621 16.2814 16.0176C15.7554 16.2732 15.2935 16.6436 14.9298 17.1015L9.21882 13.5312C9.42696 12.8594 9.42696 12.1404 9.21882 11.4687L14.9298 7.89835C15.5094 8.6161 16.3244 9.10552 17.2303 9.27992C18.1363 9.45432 19.0747 9.30244 19.8794 8.85118C20.6841 8.39993 21.3031 7.67843 21.6267 6.81448C21.9504 5.95054 21.9578 4.99993 21.6477 4.13104C21.3376 3.26214 20.7299 2.53106 19.9324 2.06728C19.1348 1.60351 18.1989 1.43699 17.2903 1.59721C16.3818 1.75743 15.5593 2.23406 14.9685 2.94266C14.3777 3.65127 14.0568 4.54611 14.0626 5.46867C14.0664 5.81802 14.119 6.16512 14.2188 6.49992L8.50788 10.0702C8.0037 9.43553 7.31455 8.97339 6.53597 8.74788C5.75738 8.52237 4.92793 8.54465 4.16258 8.81164C3.39723 9.07864 2.73389 9.57711 2.26451 10.238C1.79513 10.8988 1.54297 11.6893 1.54297 12.4999C1.54297 13.3105 1.79513 14.101 2.26451 14.7619C2.73389 15.4227 3.39723 15.9212 4.16258 16.1882C4.92793 16.4552 5.75738 16.4775 6.53597 16.252C7.31455 16.0264 8.0037 15.5643 8.50788 14.9296L14.2188 18.4999C14.119 18.8347 14.0664 19.1818 14.0626 19.5312C14.0626 20.3037 14.2917 21.059 14.7209 21.7014C15.1501 22.3437 15.7602 22.8444 16.474 23.1401C17.1877 23.4357 17.9732 23.5131 18.7309 23.3624C19.4886 23.2116 20.1847 22.8396 20.731 22.2933C21.2773 21.747 21.6493 21.051 21.8 20.2932C21.9507 19.5355 21.8734 18.7501 21.5777 18.0363C21.2821 17.3225 20.7814 16.7125 20.139 16.2832C19.4966 15.854 18.7414 15.6249 17.9688 15.6249ZM17.9688 3.12492C18.4324 3.12492 18.8855 3.26237 19.2709 3.51991C19.6564 3.77744 19.9568 4.14349 20.1342 4.57175C20.3116 5.00002 20.358 5.47127 20.2675 5.92591C20.1771 6.38055 19.9539 6.79817 19.6261 7.12595C19.2983 7.45373 18.8807 7.67695 18.4261 7.76738C17.9714 7.85782 17.5002 7.8114 17.0719 7.63401C16.6436 7.45662 16.2776 7.15621 16.0201 6.77078C15.7625 6.38536 15.6251 5.93222 15.6251 5.46867C15.6251 4.84706 15.872 4.25092 16.3115 3.81138C16.7511 3.37185 17.3472 3.12492 17.9688 3.12492ZM5.46882 14.8437C5.00527 14.8437 4.55213 14.7062 4.1667 14.4487C3.78127 14.1911 3.48087 13.8251 3.30347 13.3968C3.12608 12.9686 3.07967 12.4973 3.1701 12.0427C3.26054 11.588 3.48376 11.1704 3.81154 10.8426C4.13932 10.5149 4.55693 10.2916 5.01157 10.2012C5.46622 10.1108 5.93747 10.1572 6.36573 10.3346C6.794 10.512 7.16004 10.8124 7.41757 11.1978C7.67511 11.5832 7.81257 12.0364 7.81257 12.4999C7.81257 13.1215 7.56564 13.7177 7.1261 14.1572C6.68656 14.5967 6.09042 14.8437 5.46882 14.8437ZM17.9688 21.8749C17.5053 21.8749 17.0521 21.7375 16.6667 21.4799C16.2813 21.2224 15.9809 20.8563 15.8035 20.4281C15.6261 19.9998 15.5797 19.5286 15.6701 19.0739C15.7605 18.6193 15.9838 18.2017 16.3115 17.8739C16.6393 17.5461 17.0569 17.3229 17.5116 17.2324C17.9662 17.142 18.4375 17.1884 18.8657 17.3658C19.294 17.5432 19.66 17.8436 19.9176 18.229C20.1751 18.6145 20.3126 19.0676 20.3126 19.5312C20.3126 20.1528 20.0656 20.7489 19.6261 21.1884C19.1866 21.628 18.5904 21.8749 17.9688 21.8749Z" fill="#E50050"/>
</svg>
