<svg width="33" height="33" viewBox="0 0 33 33" fill="none" xmlns="http://www.w3.org/2000/svg">
<path d="M10.6563 3.4375C10.6563 3.164 10.5476 2.90169 10.3542 2.7083C10.1608 2.5149 9.89852 2.40625 9.62502 2.40625C9.35151 2.40625 9.08921 2.5149 8.89581 2.7083C8.70242 2.90169 8.59377 3.164 8.59377 3.4375V5.61C6.61377 5.76812 5.31577 6.15587 4.36152 7.1115C3.40589 8.06575 3.01814 9.36513 2.85864 11.3438H30.1414C29.9819 9.36375 29.5941 8.06575 28.6385 7.1115C27.6843 6.15587 26.3849 5.76813 24.4063 5.60862V3.4375C24.4063 3.164 24.2976 2.90169 24.1042 2.7083C23.9108 2.5149 23.6485 2.40625 23.375 2.40625C23.1015 2.40625 22.8392 2.5149 22.6458 2.7083C22.4524 2.90169 22.3438 3.164 22.3438 3.4375V5.51787C21.4294 5.5 20.4036 5.5 19.25 5.5H13.75C12.5964 5.5 11.5706 5.5 10.6563 5.51787V3.4375Z" fill="#E50050"/>
<path fill-rule="evenodd" clip-rule="evenodd" d="M30.25 16.5C30.25 15.3464 30.25 14.3206 30.2321 13.4062H2.76788C2.75 14.3206 2.75 15.3464 2.75 16.5V19.25C2.75 24.4351 2.75 27.0284 4.3615 28.6385C5.973 30.2486 8.56488 30.25 13.75 30.25H19.25C24.4351 30.25 27.0284 30.25 28.6385 28.6385C30.2486 27.027 30.25 24.4351 30.25 19.25V16.5ZM19.25 16.8438C18.6118 16.8438 17.9998 17.0973 17.5485 17.5485C17.0973 17.9998 16.8438 18.6118 16.8438 19.25V22C16.8438 22.6382 17.0973 23.2502 17.5485 23.7015C17.9998 24.1527 18.6118 24.4062 19.25 24.4062C19.8882 24.4062 20.5002 24.1527 20.9515 23.7015C21.4027 23.2502 21.6562 22.6382 21.6562 22V19.25C21.6562 18.6118 21.4027 17.9998 20.9515 17.5485C20.5002 17.0973 19.8882 16.8438 19.25 16.8438ZM19.25 18.9062C19.1588 18.9062 19.0714 18.9425 19.0069 19.0069C18.9425 19.0714 18.9062 19.1588 18.9062 19.25V22C18.9062 22.0912 18.9425 22.1786 19.0069 22.2431C19.0714 22.3075 19.1588 22.3438 19.25 22.3438C19.3412 22.3438 19.4286 22.3075 19.4931 22.2431C19.5575 22.1786 19.5938 22.0912 19.5938 22V19.25C19.5938 19.1588 19.5575 19.0714 19.4931 19.0069C19.4286 18.9425 19.3412 18.9062 19.25 18.9062ZM14.8321 16.9221C15.0206 17.0002 15.1817 17.1324 15.295 17.302C15.4083 17.4716 15.4688 17.671 15.4688 17.875V23.375C15.4688 23.6485 15.3601 23.9108 15.1667 24.1042C14.9733 24.2976 14.711 24.4062 14.4375 24.4062C14.164 24.4062 13.9017 24.2976 13.7083 24.1042C13.5149 23.9108 13.4062 23.6485 13.4062 23.375V20.3638L13.1037 20.6662C12.9083 20.8484 12.6497 20.9476 12.3825 20.9429C12.1154 20.9382 11.8605 20.8299 11.6715 20.641C11.4826 20.452 11.3743 20.1971 11.3696 19.93C11.3649 19.6628 11.4641 19.4042 11.6463 19.2088L13.7088 17.1463C13.8529 17.002 14.0365 16.9038 14.2365 16.8639C14.4364 16.824 14.6437 16.8442 14.8321 16.9221Z" fill="#E50050"/>
</svg>
