<svg width="18" height="17" viewBox="0 0 18 17" fill="none" xmlns="http://www.w3.org/2000/svg">
<path d="M8.56088 13.8373L4.41088 16.3373C4.22754 16.4539 4.03588 16.5039 3.83588 16.4873C3.63588 16.4706 3.46088 16.4039 3.31088 16.2873C3.16088 16.1706 3.04421 16.0249 2.96088 15.8503C2.87754 15.6756 2.86088 15.4796 2.91088 15.2623L4.01088 10.5373L0.335876 7.36227C0.169209 7.21227 0.0652091 7.04127 0.0238758 6.84927C-0.0174575 6.65727 -0.00512426 6.46994 0.0608757 6.28727C0.126876 6.1046 0.226876 5.9546 0.360876 5.83727C0.494876 5.71993 0.678209 5.64494 0.910876 5.61227L5.76088 5.18727L7.63588 0.737268C7.71921 0.537268 7.84854 0.387268 8.02388 0.287268C8.19921 0.187268 8.37821 0.137268 8.56088 0.137268C8.74354 0.137268 8.92254 0.187268 9.09788 0.287268C9.27321 0.387268 9.40254 0.537268 9.48588 0.737268L11.3609 5.18727L16.2109 5.61227C16.4442 5.6456 16.6275 5.7206 16.7609 5.83727C16.8942 5.95393 16.9942 6.10394 17.0609 6.28727C17.1275 6.4706 17.1402 6.65827 17.0989 6.85027C17.0575 7.04227 16.9532 7.21293 16.7859 7.36227L13.1109 10.5373L14.2109 15.2623C14.2609 15.4789 14.2442 15.6749 14.1609 15.8503C14.0775 16.0256 13.9609 16.1713 13.8109 16.2873C13.6609 16.4033 13.4859 16.4699 13.2859 16.4873C13.0859 16.5046 12.8942 16.4546 12.7109 16.3373L8.56088 13.8373Z" fill="#FFF4F8"/>
</svg>
