<svg width="23" height="23" viewBox="0 0 23 23" fill="none" xmlns="http://www.w3.org/2000/svg">
<g clip-path="url(#clip0_950_7671)">
<path d="M2.03711 0.821411L20.93 9.41355M20.93 9.41355L17.3978 10.7443M20.93 9.41355L19.6157 5.86498" stroke="#EA1216" stroke-width="1.2" stroke-linecap="round" stroke-linejoin="round"/>
<path d="M2.05361 9.85718H4.51789C4.73575 9.85718 4.94468 9.94372 5.09873 10.0978C5.25278 10.2518 5.33932 10.4607 5.33932 10.6786V22.1786H1.23218V10.6786C1.23218 10.4607 1.31872 10.2518 1.47277 10.0978C1.62682 9.94372 1.83575 9.85718 2.05361 9.85718ZM10.2679 12.3215H12.7322C12.95 12.3215 13.159 12.408 13.313 12.5621C13.4671 12.7161 13.5536 12.925 13.5536 13.1429V22.1786H9.44647V13.1429C9.44647 12.925 9.53301 12.7161 9.68706 12.5621C9.8411 12.408 10.05 12.3215 10.2679 12.3215ZM18.4822 14.7857H20.9465C21.1643 14.7857 21.3733 14.8723 21.5273 15.0263C21.6814 15.1804 21.7679 15.3893 21.7679 15.6072V22.1786H17.6608V15.6072C17.6608 15.3893 17.7473 15.1804 17.9013 15.0263C18.0554 14.8723 18.2643 14.7857 18.4822 14.7857Z" fill="#EA1216" fill-opacity="0.2"/>
<path d="M2.05361 9.85718H4.51789C4.73575 9.85718 4.94468 9.94372 5.09873 10.0978C5.25278 10.2518 5.33932 10.4607 5.33932 10.6786V22.1786H1.23218V10.6786C1.23218 10.4607 1.31872 10.2518 1.47277 10.0978C1.62682 9.94372 1.83575 9.85718 2.05361 9.85718ZM10.2679 12.3215H12.7322C12.95 12.3215 13.159 12.408 13.313 12.5621C13.4671 12.7161 13.5536 12.925 13.5536 13.1429V22.1786H9.44647V13.1429C9.44647 12.925 9.53301 12.7161 9.68706 12.5621C9.8411 12.408 10.05 12.3215 10.2679 12.3215ZM18.4822 14.7857H20.9465C21.1643 14.7857 21.3733 14.8723 21.5273 15.0263C21.6814 15.1804 21.7679 15.3893 21.7679 15.6072V22.1786H17.6608V15.6072C17.6608 15.3893 17.7473 15.1804 17.9013 15.0263C18.0554 14.8723 18.2643 14.7857 18.4822 14.7857Z" stroke="#EA1216" stroke-width="1.2" stroke-linecap="round" stroke-linejoin="round"/>
</g>
<defs>
<clipPath id="clip0_950_7671">
<rect width="23" height="23" fill="white"/>
</clipPath>
</defs>
</svg>
