<svg width="1600" height="294" viewBox="0 0 1600 294" fill="none" xmlns="http://www.w3.org/2000/svg">
<path d="M130.621 44.4225C113.005 44.4225 97.9577 48.4595 85.4797 56.5335C73.0017 64.6075 63.4597 75.8621 56.8537 90.2975C50.2477 104.488 46.9447 121.37 46.9447 140.943C46.9447 160.761 50.4923 177.643 57.5877 191.589C64.683 205.291 74.4697 215.689 86.9477 222.784C99.6703 229.88 114.228 233.427 130.621 233.427C142.609 233.427 153.13 231.959 162.183 229.023C171.48 225.843 179.309 221.316 185.671 215.444C192.032 209.328 196.925 201.988 200.351 193.424C204.021 184.861 205.856 175.319 205.856 164.798V141.31L227.876 163.697H124.749V122.226H249.529V273.063H209.893L205.856 229.757L211.361 235.262C207.446 243.336 201.207 250.554 192.644 256.915C184.325 263.277 174.416 268.292 162.917 271.962C151.417 275.388 138.939 277.1 125.483 277.1C100.527 277.1 78.3843 271.473 59.0557 260.218C39.9717 248.719 24.9247 232.693 13.9147 212.141C3.14934 191.589 -2.23333 167.49 -2.23333 139.842C-2.23333 112.684 3.27168 88.7071 14.2817 67.9105C25.5363 46.8691 41.195 30.3541 61.2577 18.3655C81.565 6.3768 105.053 0.382465 131.722 0.382465C152.274 0.382465 170.868 4.1748 187.506 11.7595C204.143 19.0995 217.722 29.4978 228.243 42.9545C239.008 56.4111 245.614 72.3145 248.061 90.6645H198.516C194.356 74.7611 186.038 63.1395 173.56 55.7995C161.082 48.2148 146.769 44.4225 130.621 44.4225ZM331.094 273.063H286.687V0.0154701H331.094V273.063ZM360.079 182.047C360.079 163.208 364.238 146.693 372.557 132.502C380.875 118.067 392.375 106.812 407.055 98.7385C421.735 90.6645 438.372 86.6275 456.967 86.6275C475.806 86.6275 492.444 90.6645 506.879 98.7385C521.559 106.812 533.058 118.067 541.377 132.502C549.696 146.693 553.855 163.208 553.855 182.047C553.855 200.887 549.696 217.524 541.377 231.959C533.058 246.15 521.559 257.282 506.879 265.356C492.444 273.43 475.806 277.467 456.967 277.467C438.372 277.467 421.735 273.43 407.055 265.356C392.375 257.282 380.875 246.15 372.557 231.959C364.238 217.524 360.079 200.887 360.079 182.047ZM404.853 182.047C404.853 193.057 407.055 202.722 411.459 211.04C416.107 219.359 422.224 225.843 429.809 230.491C437.638 235.14 446.691 237.464 456.967 237.464C467.243 237.464 476.295 235.14 484.125 230.491C491.954 225.843 498.071 219.359 502.475 211.04C506.879 202.722 509.081 193.057 509.081 182.047C509.081 170.793 506.879 161.128 502.475 153.054C498.071 144.736 491.954 138.252 484.125 133.603C476.295 128.955 467.243 126.63 456.967 126.63C446.691 126.63 437.638 128.955 429.809 133.603C422.224 138.252 416.107 144.736 411.459 153.054C407.055 161.128 404.853 170.793 404.853 182.047ZM613.406 273.063L554.686 91.7655H601.295L625.15 169.569C627.108 176.665 629.065 184.127 631.022 191.956C632.98 199.786 634.692 207.982 636.16 216.545C637.384 210.673 638.485 205.291 639.463 200.397C640.687 195.504 642.032 190.733 643.5 186.084C644.968 181.191 646.681 175.686 648.638 169.569L673.594 91.7655H719.102L743.324 169.569C743.814 171.282 744.548 174.218 745.526 178.377C746.75 182.292 747.973 186.574 749.196 191.222C750.42 195.871 751.521 200.52 752.499 205.168C753.723 209.572 754.579 213.365 755.068 216.545C756.047 211.897 757.27 206.636 758.738 200.764C760.206 194.892 761.674 189.265 763.142 183.882C764.855 178.255 766.201 173.484 767.179 169.569L791.401 91.7655H838.744L775.987 273.063H734.149L709.193 194.525C705.523 182.537 702.587 172.383 700.385 164.064C698.183 155.501 696.715 148.895 695.981 144.246C695.247 148.65 693.902 154.522 691.944 161.862C689.987 169.202 686.684 180.335 682.035 195.259L657.079 273.063H613.406ZM979.454 273.063H931.01L1027.9 4.78647H1075.98L1172.86 273.063H1123.32L1101.67 211.04H1001.47L979.454 273.063ZM1045.88 84.7925L1015.05 171.404H1088.09L1057.26 84.7925C1056.28 81.1225 1055.18 77.4525 1053.96 73.7825C1052.73 70.1125 1052 66.9318 1051.75 64.2405C1051.26 66.6871 1050.41 69.8678 1049.18 73.7825C1048.21 77.4525 1047.1 81.1225 1045.88 84.7925ZM1192.56 357.106V91.7655H1234.03L1236.97 119.29C1242.35 108.77 1250.67 100.696 1261.92 95.0685C1273.18 89.1965 1285.53 86.2605 1298.99 86.2605C1316.36 86.2605 1331.28 90.1751 1343.76 98.0045C1356.48 105.834 1366.39 116.721 1373.49 130.667C1380.58 144.613 1384.13 161.128 1384.13 180.212C1384.13 199.052 1380.83 215.811 1374.22 230.491C1367.62 245.171 1357.95 256.793 1345.23 265.356C1332.75 273.675 1317.46 277.834 1299.36 277.834C1285.9 277.834 1273.54 275.265 1262.29 270.127C1251.28 264.989 1242.96 257.894 1237.33 248.841V357.106H1192.56ZM1237.7 182.414C1237.7 193.18 1239.78 202.722 1243.94 211.04C1248.1 219.359 1253.97 225.965 1261.55 230.858C1269.38 235.507 1278.44 237.831 1288.71 237.831C1299.23 237.831 1308.29 235.507 1315.87 230.858C1323.45 225.965 1329.2 219.359 1333.12 211.04C1337.03 202.722 1338.99 193.18 1338.99 182.414C1338.99 171.649 1337.03 162.107 1333.12 153.788C1329.2 145.47 1323.45 138.986 1315.87 134.337C1308.29 129.444 1299.23 126.997 1288.71 126.997C1278.44 126.997 1269.38 129.322 1261.55 133.97C1253.97 138.619 1248.1 145.103 1243.94 153.421C1239.78 161.74 1237.7 171.404 1237.7 182.414ZM1412.44 357.106V91.7655H1453.91L1456.85 119.29C1462.23 108.77 1470.55 100.696 1481.81 95.0685C1493.06 89.1965 1505.42 86.2605 1518.87 86.2605C1536.24 86.2605 1551.17 90.1751 1563.65 98.0045C1576.37 105.834 1586.28 116.721 1593.37 130.667C1600.47 144.613 1604.02 161.128 1604.02 180.212C1604.02 199.052 1600.71 215.811 1594.11 230.491C1587.5 245.171 1577.84 256.793 1565.11 265.356C1552.64 273.675 1537.35 277.834 1519.24 277.834C1505.78 277.834 1493.43 275.265 1482.17 270.127C1471.16 264.989 1462.84 257.894 1457.22 248.841V357.106H1412.44ZM1457.58 182.414C1457.58 193.18 1459.66 202.722 1463.82 211.04C1467.98 219.359 1473.85 225.965 1481.44 230.858C1489.27 235.507 1498.32 237.831 1508.6 237.831C1519.12 237.831 1528.17 235.507 1535.75 230.858C1543.34 225.965 1549.09 219.359 1553 211.04C1556.92 202.722 1558.88 193.18 1558.88 182.414C1558.88 171.649 1556.92 162.107 1553 153.788C1549.09 145.47 1543.34 138.986 1535.75 134.337C1528.17 129.444 1519.12 126.997 1508.6 126.997C1498.32 126.997 1489.27 129.322 1481.44 133.97C1473.85 138.619 1467.98 145.103 1463.82 153.421C1459.66 161.74 1457.58 171.404 1457.58 182.414Z" fill="#D5BEC6"/>
</svg>
