<svg width="25" height="25" viewBox="0 0 25 25" fill="none" xmlns="http://www.w3.org/2000/svg">
<path d="M11.8125 0.96875C9.99181 0.968868 8.19791 1.40723 6.58235 2.24679C4.9668 3.08635 3.57706 4.30245 2.53056 5.79232C1.48407 7.2822 0.811567 9.00209 0.569877 10.8067C0.328187 12.6112 0.524412 14.4475 1.14197 16.1602C1.75953 17.873 2.78028 19.4119 4.11798 20.647C5.45567 21.8821 7.071 22.7771 8.82749 23.2563C10.584 23.7355 12.43 23.7849 14.2096 23.4003C15.9892 23.0156 17.6501 22.2083 19.0519 21.0465L22.7341 24.7288C22.9296 24.9109 23.1882 25.0101 23.4553 25.0054C23.7225 25.0007 23.9774 24.8924 24.1664 24.7035C24.3553 24.5145 24.4635 24.2596 24.4682 23.9925C24.473 23.7253 24.3738 23.4667 24.1916 23.2713L20.5135 19.5918C21.8983 17.9366 22.7823 15.9208 23.0616 13.781C23.341 11.6411 23.0041 9.46591 22.0907 7.51074C21.1772 5.55558 19.7249 3.90155 17.9044 2.74278C16.0838 1.58402 13.9705 0.968595 11.8125 0.96875Z" fill="#E50050"/>
</svg>
