<svg width="23" height="23" viewBox="0 0 23 23" fill="none" xmlns="http://www.w3.org/2000/svg">
<path d="M6.00138 0.5H17.0014V3.24588H19.7514V0.5C20.4805 0.500365 21.1796 0.790257 21.695 1.30594C22.2105 1.82163 22.5 2.52089 22.5 3.25V19.75C22.5 20.4791 22.2105 21.1784 21.695 21.6941C21.1796 22.2097 20.4805 22.4996 19.7514 22.5V19.7459H17.0014V22.5H6.00138V19.7459H3.25137V22.5C2.52203 22.5 1.82118 22.2103 1.30546 21.6945C0.789731 21.1788 0.5 20.4793 0.5 19.75V3.25C0.5 2.52065 0.789731 1.82118 1.30546 1.30546C1.82118 0.789731 2.52065 0.5 3.25 0.5L3.25137 3.24588H6.00138V0.5ZM8.75 15.625L14.9375 11.5L8.75 7.375V15.625ZM19.7514 16.9959V12.8709H17.0014V16.9959H19.7514ZM19.7514 10.1209V5.99588H17.0014V10.1209H19.7514ZM6.00138 16.9959V12.8709H3.25137V16.9959H6.00138ZM6.00138 10.1209V5.99588H3.25137V10.1209H6.00138Z" fill="#FFF4F8"/>
</svg>
